<?xml version="1.0" encoding="UTF-8"?>
<svg id="Layer_2" data-name="Layer 2" xmlns="http://www.w3.org/2000/svg" viewBox="0 0 360 360">
  <defs>
    <style>
      .cls-1 {
        fill: #231f20;
      }

      .cls-2 {
        fill: #fff;
      }
    </style>
  </defs>
  <g id="Layer_1-2" data-name="Layer 1">
    <rect class="cls-1" width="360" height="360" rx="36" ry="36"/>
    <g>
      <g>
        <path class="cls-2" d="M91.07,177.67l-4.32-10.58h-19.96l-4.32,10.58h-10.59l20.23-47.54h9.58l20.23,47.54h-10.86ZM76.77,142.6l-6.27,15.31h12.54l-6.27-15.31Z"/>
        <path class="cls-2" d="M111.89,177.67v-47.2h10.38v37.77h23.53v9.44h-33.92Z"/>
        <path class="cls-2" d="M156.79,177.67v-47.2h10.39v47.2h-10.39Z"/>
        <path class="cls-2" d="M203.79,178.48c-13.89,0-24.21-10.72-24.21-24.28v-.13c0-13.42,10.11-24.41,24.61-24.41,8.9,0,14.23,2.97,18.62,7.28l-6.61,7.62c-3.64-3.3-7.35-5.33-12.07-5.33-7.96,0-13.69,6.61-13.69,14.7v.14c0,8.09,5.6,14.83,13.69,14.83,5.39,0,8.7-2.16,12.41-5.53l6.61,6.67c-4.86,5.19-10.25,8.43-19.35,8.43Z"/>
        <path class="cls-2" d="M234.6,177.67v-47.2h10.38v47.2h-10.38Z"/>
        <path class="cls-2" d="M294.61,177.67l-4.31-10.58h-19.96l-4.31,10.58h-10.59l20.24-47.54h9.57l20.23,47.54h-10.86ZM280.32,142.6l-6.27,15.31h12.54l-6.27-15.31Z"/>
        <path class="cls-2" d="M81.12,237.55l-10.12-15.11h-8.16v15.11h-10.39v-47.2h21.58c11.13,0,17.8,5.87,17.8,15.57v.14c0,7.61-4.11,12.41-10.12,14.63l11.53,16.86h-12.14ZM81.32,206.46c0-4.45-3.1-6.75-8.16-6.75h-10.31v13.55h10.52c5.06,0,7.96-2.7,7.96-6.68v-.13Z"/>
        <path class="cls-2" d="M101.68,237.55v-47.2h10.39v47.2h-10.39Z"/>
        <path class="cls-2" d="M142.27,237.55h-18.41v-47.2h18.41c14.84,0,25.09,10.18,25.09,23.46v.14c0,13.28-10.25,23.6-25.09,23.6ZM156.5,213.95c0-8.36-5.73-14.23-14.23-14.23h-8.02v28.46h8.02c8.5,0,14.23-5.74,14.23-14.1v-.13Z"/>
        <path class="cls-2" d="M194.99,237.55h-18.41v-47.2h18.41c14.83,0,25.09,10.18,25.09,23.46v.14c0,13.28-10.25,23.6-25.09,23.6ZM209.22,213.95c0-8.36-5.73-14.23-14.23-14.23h-8.03v28.46h8.03c8.5,0,14.23-5.74,14.23-14.1v-.13Z"/>
        <path class="cls-2" d="M229.3,237.55v-47.2h10.39v37.77h23.54v9.44h-33.92Z"/>
        <path class="cls-2" d="M271.04,237.55v-47.2h35.61v9.24h-25.29v9.58h22.25v9.24h-22.25v9.91h25.62v9.24h-35.94Z"/>
      </g>
      <g>
        <path class="cls-2" d="M59.82,280.81h-3.2v5.75h-4.21v-19.16h7.83c4.57,0,7.34,2.7,7.34,6.62v.06c0,4.44-3.45,6.73-7.75,6.73ZM63.3,274.11c0-1.89-1.31-2.9-3.42-2.9h-3.26v5.86h3.34c2.11,0,3.34-1.26,3.34-2.9v-.05Z"/>
        <path class="cls-2" d="M86.24,286.56v-7.69h-7.78v7.69h-4.21v-19.16h4.21v7.58h7.78v-7.58h4.22v19.16h-4.22Z"/>
        <path class="cls-2" d="M107.91,286.89c-5.91,0-10.15-4.4-10.15-9.85v-.06c0-5.45,4.3-9.91,10.21-9.91s10.15,4.41,10.15,9.86v.05c0,5.45-4.3,9.91-10.21,9.91ZM113.72,276.98c0-3.28-2.41-6.02-5.81-6.02s-5.75,2.68-5.75,5.97v.05c0,3.29,2.41,6.02,5.81,6.02s5.75-2.68,5.75-5.96v-.06Z"/>
        <path class="cls-2" d="M133.29,271.29v15.27h-4.22v-15.27h-5.83v-3.89h15.88v3.89h-5.83Z"/>
        <path class="cls-2" d="M154.39,286.89c-5.91,0-10.16-4.4-10.16-9.85v-.06c0-5.45,4.3-9.91,10.21-9.91s10.16,4.41,10.16,9.86v.05c0,5.45-4.3,9.91-10.21,9.91ZM160.2,276.98c0-3.28-2.41-6.02-5.8-6.02s-5.75,2.68-5.75,5.97v.05c0,3.29,2.41,6.02,5.8,6.02s5.75-2.68,5.75-5.96v-.06Z"/>
        <path class="cls-2" d="M181.14,286.89c-5.97,0-10.08-4.19-10.08-9.85v-.06c0-5.45,4.24-9.91,10.05-9.91,3.45,0,5.53.93,7.53,2.63l-2.65,3.2c-1.48-1.23-2.8-1.94-5.01-1.94-3.07,0-5.5,2.71-5.5,5.97v.05c0,3.51,2.41,6.08,5.8,6.08,1.53,0,2.9-.38,3.97-1.15v-2.74h-4.24v-3.64h8.32v8.32c-1.97,1.67-4.68,3.04-8.18,3.04Z"/>
        <path class="cls-2" d="M208.56,286.56l-4.1-6.13h-3.31v6.13h-4.22v-19.16h8.76c4.51,0,7.23,2.38,7.23,6.32v.05c0,3.1-1.67,5.05-4.11,5.95l4.68,6.84h-4.93ZM208.65,273.94c0-1.81-1.26-2.74-3.31-2.74h-4.19v5.5h4.27c2.05,0,3.23-1.09,3.23-2.71v-.06Z"/>
        <path class="cls-2" d="M234.54,286.56l-1.75-4.3h-8.1l-1.75,4.3h-4.3l8.21-19.3h3.89l8.21,19.3h-4.4ZM228.74,272.33l-2.55,6.21h5.09l-2.54-6.21Z"/>
        <path class="cls-2" d="M252.88,280.81h-3.21v5.75h-4.22v-19.16h7.83c4.57,0,7.34,2.7,7.34,6.62v.06c0,4.44-3.45,6.73-7.74,6.73ZM256.36,274.11c0-1.89-1.31-2.9-3.42-2.9h-3.25v5.86h3.34c2.1,0,3.34-1.26,3.34-2.9v-.05Z"/>
        <path class="cls-2" d="M279.29,286.56v-7.69h-7.77v7.69h-4.22v-19.16h4.22v7.58h7.77v-7.58h4.22v19.16h-4.22Z"/>
        <path class="cls-2" d="M301.27,278.92v7.64h-4.22v-7.55l-7.36-11.6h4.93l4.58,7.69,4.65-7.69h4.8l-7.37,11.52Z"/>
      </g>
      <path class="cls-2" d="M307.96,255.11H52.03c-1.37,0-2.49-1.11-2.49-2.49s1.11-2.49,2.49-2.49h255.93c1.37,0,2.49,1.11,2.49,2.49s-1.11,2.49-2.49,2.49Z"/>
      <g>
        <path class="cls-2" d="M201.55,117.59h-46.55c-1.44,0-2.58-1.13-2.58-2.57v-32.13c0-1.44,1.13-2.58,2.58-2.58h12.15l1.54-5.35c.31-1.14,1.34-1.86,2.47-1.86h14.42c1.13,0,2.16.72,2.47,1.86l1.54,5.35h12.05c1.44,0,2.57,1.14,2.57,2.58v32.13c-.1,1.44-1.23,2.57-2.68,2.57ZM157.57,112.45h41.4v-26.98h-11.43c-1.13,0-2.16-.72-2.47-1.86l-1.54-5.36h-10.5l-1.55,5.36c-.31,1.14-1.34,1.86-2.47,1.86h-11.43v26.98Z"/>
        <path class="cls-2" d="M178.27,90.1c4.33,0,7.82,3.5,7.82,7.82s-3.5,7.83-7.82,7.83-7.82-3.5-7.82-7.83,3.5-7.82,7.82-7.82M178.27,84.96c-7.21,0-12.98,5.87-12.98,12.97s5.87,13.08,12.98,13.08,12.97-5.87,12.97-12.98-5.76-13.08-12.97-13.08h0Z"/>
        <path class="cls-2" d="M162.65,78.26h-2.5c-1.44,0-2.58-1.13-2.58-2.57s1.13-2.57,2.58-2.57h2.5c1.44,0,2.58,1.13,2.58,2.57s-1.14,2.57-2.58,2.57Z"/>
      </g>
      <path class="cls-2" d="M165.43,100.93h-8.69c-1.37,0-2.49-1.12-2.49-2.49s1.12-2.49,2.49-2.49h8.69c1.37,0,2.49,1.12,2.49,2.49s-1.12,2.49-2.49,2.49Z"/>
      <path class="cls-2" d="M199.41,100.93h-10.23c-1.38,0-2.49-1.12-2.49-2.49s1.11-2.49,2.49-2.49h10.23c1.37,0,2.48,1.12,2.48,2.49s-1.11,2.49-2.48,2.49Z"/>
      <path class="cls-2" d="M139.51,115.04s0,0,0-.01c0,0,0,0,0-.01v-2.5h-5.68v.02H52.03c-1.37,0-2.49,1.12-2.49,2.49s1.11,2.49,2.49,2.49h84.49s.08-.02.13-.03h2.86v-2.45Z"/>
      <path class="cls-2" d="M307.96,112.54h-85.65v-.02h-5.17v2.4s-.02.08-.02.11c0,.04.01.07.02.11v2.35h2.34s.08.03.13.03h88.35c1.37,0,2.49-1.12,2.49-2.49s-1.11-2.49-2.49-2.49Z"/>
    </g>
  </g>
</svg>